<?xml version="1.0" encoding="UTF-8" standalone="no"?>
<!DOCTYPE svg PUBLIC "-//W3C//DTD SVG 1.1//EN" "http://www.w3.org/Graphics/SVG/1.1/DTD/svg11.dtd">
<svg width="100%" height="100%" viewBox="0 0 1600 900" version="1.1" xmlns="http://www.w3.org/2000/svg" xmlns:xlink="http://www.w3.org/1999/xlink" xml:space="preserve" xmlns:serif="http://www.serif.com/" style="fill-rule:evenodd;clip-rule:evenodd;stroke-linejoin:round;stroke-miterlimit:2;">
    <g id="Rare">
        <g transform="matrix(-0.98577,0.243431,-0.103241,-0.418074,3481.1,1235.15)">
            <path d="M1750.73,2159.07L1981.79,2080.6L1984.07,2159.07L1750.73,2159.07ZM1994.09,2159.07L1991.71,2077.23L2014.23,2069.59L2016.82,2159.07L1994.09,2159.07ZM2035.23,2159.07L2032.46,2063.39L2055.9,2055.43L2058.9,2159.07L2035.23,2159.07ZM2092.07,2159.07L2088.74,2044.28L2114.34,2035.58L2117.92,2159.07L2092.07,2159.07ZM2174.63,2159.07L2170.5,2016.51L2195.54,2008.01L2199.92,2159.07L2174.63,2159.07ZM2297.16,2159.07L2291.84,1975.3L2316.37,1966.97L2321.94,2159.07L2297.16,2159.07Z" style="fill:url(#_Linear1);"/>
        </g>
        <g transform="matrix(-0.713348,0.547246,-0.186428,-0.243014,3228.35,203.785)">
            <path d="M2378.36,1795.97C2378.36,1729.17 2359.89,1674.94 2337.13,1674.94L1616.44,1674.94C1593.68,1674.94 1575.21,1729.17 1575.21,1795.97L1575.21,2038.04C1575.21,2104.84 1593.68,2159.07 1616.44,2159.07L2337.13,2159.07C2359.89,2159.07 2378.36,2104.84 2378.36,2038.04L2378.36,1795.97Z" style="fill:url(#_Linear2);"/>
        </g>
        <g transform="matrix(-0.0186551,-0.0607661,0.0939454,-0.028841,1163.52,1411.81)">
            <path d="M6232.94,2813.62C6232.94,2751.31 6154.73,2700.72 6058.39,2700.72L5709.28,2700.72C5612.94,2700.72 5534.73,2751.31 5534.73,2813.62L5534.73,5988.09C5534.73,6050.4 5612.94,6100.99 5709.28,6100.99L6058.39,6100.99C6154.73,6100.99 6232.94,6050.4 6232.94,5988.09L6232.94,2813.62Z" style="fill:rgb(137,0,255);"/>
        </g>
        <g transform="matrix(-0.0109099,-0.0355375,0.0939454,-0.028841,1104.56,1209.53)">
            <path d="M6232.94,2766.75C6232.94,2730.3 6154.73,2700.72 6058.39,2700.72L5709.28,2700.72C5612.94,2700.72 5534.73,2730.3 5534.73,2766.75L5534.73,6034.96C5534.73,6071.4 5612.94,6100.99 5709.28,6100.99L6058.39,6100.99C6154.73,6100.99 6232.94,6071.4 6232.94,6034.96L6232.94,2766.75Z" style="fill:rgb(137,0,255);"/>
        </g>
        <g transform="matrix(-0.00605661,-0.0197285,0.136973,-0.0420505,804.961,1159.23)">
            <path d="M6232.94,2725.86C6232.94,2711.98 6154.73,2700.72 6058.39,2700.72L5709.28,2700.72C5612.94,2700.72 5534.73,2711.98 5534.73,2725.86L5534.73,6075.85C5534.73,6089.73 5612.94,6100.99 5709.28,6100.99L6058.39,6100.99C6154.73,6100.99 6232.94,6089.73 6232.94,6075.85L6232.94,2725.86Z" style="fill:rgb(137,0,255);"/>
        </g>
        <path d="M1600.83,577.835L1546.32,625.18L1608.82,492.892L1600.83,577.835Z" style="fill:rgb(120,15,249);"/>
        <g transform="matrix(-0.225672,6.93889e-17,-4.16334e-17,-0.225672,1901.1,743.335)">
            <path d="M1600.83,577.835L1546.32,625.18L1608.82,492.892L1600.83,577.835Z" style="fill:rgb(120,15,249);"/>
        </g>
        <g transform="matrix(0.118619,0,0,0.118619,1344.06,566.198)">
            <path d="M1600.83,577.835L1546.32,625.18L1608.82,492.892L1600.83,577.835Z" style="fill:rgb(120,15,249);"/>
        </g>
    </g>
    <defs>
        <linearGradient id="_Linear1" x1="0" y1="0" x2="1" y2="0" gradientUnits="userSpaceOnUse" gradientTransform="matrix(803.155,0,0,484.137,1575.21,1917.01)"><stop offset="0" style="stop-color:rgb(21,77,255);stop-opacity:1"/><stop offset="1" style="stop-color:rgb(201,85,255);stop-opacity:1"/></linearGradient>
        <linearGradient id="_Linear2" x1="0" y1="0" x2="1" y2="0" gradientUnits="userSpaceOnUse" gradientTransform="matrix(803.155,0,0,484.137,1575.21,1917.01)"><stop offset="0" style="stop-color:rgb(77,0,244);stop-opacity:1"/><stop offset="1" style="stop-color:rgb(169,85,255);stop-opacity:1"/></linearGradient>
    </defs>
</svg>
